<mxfile host="app.diagrams.net" modified="2023-10-13T13:37:30.693Z" agent="Mozilla/5.0 (Windows NT 10.0; Win64; x64) AppleWebKit/537.36 (KHTML, like Gecko) Chrome/116.0.0.0 Safari/537.36 OPR/102.0.0.0" etag="o0VTXLkCed9iOeMMjusv" version="22.0.4" type="github">
  <diagram id="R2lEEEUBdFMjLlhIrx00" name="Page-1">
    <mxGraphModel dx="2020" dy="783" grid="1" gridSize="10" guides="1" tooltips="1" connect="1" arrows="1" fold="1" page="1" pageScale="1" pageWidth="850" pageHeight="1100" math="0" shadow="0" extFonts="Permanent Marker^https://fonts.googleapis.com/css?family=Permanent+Marker">
      <root>
        <mxCell id="0" />
        <mxCell id="1" parent="0" />
        <mxCell id="d7hhRoVu3XtH6k2qPUHQ-1" value="Localidad" style="swimlane;childLayout=stackLayout;horizontal=1;startSize=50;horizontalStack=0;rounded=1;fontSize=14;fontStyle=0;strokeWidth=2;resizeParent=0;resizeLast=1;shadow=0;dashed=0;align=center;arcSize=4;whiteSpace=wrap;html=1;" parent="1" vertex="1">
          <mxGeometry x="800" y="400" width="160" height="120" as="geometry" />
        </mxCell>
        <mxCell id="d7hhRoVu3XtH6k2qPUHQ-2" value="&lt;font style=&quot;font-size: 14px;&quot;&gt;&lt;b&gt;+id_localidad: int&lt;br&gt;&lt;/b&gt;&lt;/font&gt;+nombre&lt;br&gt;+poblacion" style="align=left;strokeColor=none;fillColor=none;spacingLeft=4;fontSize=12;verticalAlign=top;resizable=0;rotatable=0;part=1;html=1;" parent="d7hhRoVu3XtH6k2qPUHQ-1" vertex="1">
          <mxGeometry y="50" width="160" height="70" as="geometry" />
        </mxCell>
        <mxCell id="d7hhRoVu3XtH6k2qPUHQ-3" value="Provincia" style="swimlane;childLayout=stackLayout;horizontal=1;startSize=50;horizontalStack=0;rounded=1;fontSize=14;fontStyle=0;strokeWidth=2;resizeParent=0;resizeLast=1;shadow=0;dashed=0;align=center;arcSize=4;whiteSpace=wrap;html=1;" parent="1" vertex="1">
          <mxGeometry x="360" y="230" width="160" height="120" as="geometry" />
        </mxCell>
        <mxCell id="d7hhRoVu3XtH6k2qPUHQ-4" value="&lt;b&gt;&lt;font style=&quot;font-size: 14px;&quot;&gt;+id_provincia: int&lt;br&gt;&lt;/font&gt;&lt;/b&gt;+nombre&lt;br&gt;+superficie" style="align=left;strokeColor=none;fillColor=none;spacingLeft=4;fontSize=12;verticalAlign=top;resizable=0;rotatable=0;part=1;html=1;" parent="d7hhRoVu3XtH6k2qPUHQ-3" vertex="1">
          <mxGeometry y="50" width="160" height="70" as="geometry" />
        </mxCell>
        <mxCell id="d7hhRoVu3XtH6k2qPUHQ-5" value="Comunidad" style="swimlane;childLayout=stackLayout;horizontal=1;startSize=50;horizontalStack=0;rounded=1;fontSize=14;fontStyle=0;strokeWidth=2;resizeParent=0;resizeLast=1;shadow=0;dashed=0;align=center;arcSize=4;whiteSpace=wrap;html=1;" parent="1" vertex="1">
          <mxGeometry x="70" y="80" width="160" height="120" as="geometry" />
        </mxCell>
        <mxCell id="d7hhRoVu3XtH6k2qPUHQ-6" value="&lt;font style=&quot;font-size: 14px;&quot;&gt;&lt;b&gt;+id_comunidad: int&lt;/b&gt;&lt;/font&gt;&lt;br&gt;+nombre" style="align=left;strokeColor=none;fillColor=none;spacingLeft=4;fontSize=12;verticalAlign=top;resizable=0;rotatable=0;part=1;html=1;" parent="d7hhRoVu3XtH6k2qPUHQ-5" vertex="1">
          <mxGeometry y="50" width="160" height="70" as="geometry" />
        </mxCell>
        <mxCell id="ij8cqxqRArz29GPGPIsn-2" value="capital comunidad" style="shape=rhombus;perimeter=rhombusPerimeter;whiteSpace=wrap;html=1;align=center;" parent="1" vertex="1">
          <mxGeometry x="345" y="470" width="120" height="60" as="geometry" />
        </mxCell>
        <mxCell id="ij8cqxqRArz29GPGPIsn-5" value="capital&amp;nbsp; provincia" style="shape=rhombus;perimeter=rhombusPerimeter;whiteSpace=wrap;html=1;align=center;" parent="1" vertex="1">
          <mxGeometry x="610" y="300" width="120" height="60" as="geometry" />
        </mxCell>
        <mxCell id="CeydBxBqV19K2FaGcwSM-1" value="" style="edgeStyle=entityRelationEdgeStyle;fontSize=12;html=1;endArrow=ERzeroToOne;endFill=1;rounded=0;entryX=0;entryY=0.5;entryDx=0;entryDy=0;exitX=1;exitY=1;exitDx=0;exitDy=0;" edge="1" parent="1" source="d7hhRoVu3XtH6k2qPUHQ-6" target="ij8cqxqRArz29GPGPIsn-2">
          <mxGeometry width="100" height="100" relative="1" as="geometry">
            <mxPoint x="180" y="380" as="sourcePoint" />
            <mxPoint x="280" y="280" as="targetPoint" />
          </mxGeometry>
        </mxCell>
        <mxCell id="CeydBxBqV19K2FaGcwSM-3" value="" style="shape=link;html=1;rounded=0;exitX=1;exitY=0.25;exitDx=0;exitDy=0;entryX=0;entryY=0.25;entryDx=0;entryDy=0;" edge="1" parent="1" source="d7hhRoVu3XtH6k2qPUHQ-6" target="d7hhRoVu3XtH6k2qPUHQ-4">
          <mxGeometry width="100" relative="1" as="geometry">
            <mxPoint x="310" y="150" as="sourcePoint" />
            <mxPoint x="410" y="150" as="targetPoint" />
          </mxGeometry>
        </mxCell>
        <mxCell id="CeydBxBqV19K2FaGcwSM-4" value="" style="shape=link;html=1;rounded=0;exitX=1;exitY=1;exitDx=0;exitDy=0;entryX=0;entryY=0.5;entryDx=0;entryDy=0;" edge="1" parent="1" source="d7hhRoVu3XtH6k2qPUHQ-4" target="d7hhRoVu3XtH6k2qPUHQ-2">
          <mxGeometry width="100" relative="1" as="geometry">
            <mxPoint x="520" y="440" as="sourcePoint" />
            <mxPoint x="620" y="440" as="targetPoint" />
          </mxGeometry>
        </mxCell>
        <mxCell id="CeydBxBqV19K2FaGcwSM-5" value="" style="edgeStyle=entityRelationEdgeStyle;fontSize=12;html=1;endArrow=ERzeroToOne;endFill=1;rounded=0;entryX=0;entryY=0.5;entryDx=0;entryDy=0;exitX=1;exitY=0.114;exitDx=0;exitDy=0;exitPerimeter=0;" edge="1" parent="1" source="d7hhRoVu3XtH6k2qPUHQ-4" target="ij8cqxqRArz29GPGPIsn-5">
          <mxGeometry width="100" height="100" relative="1" as="geometry">
            <mxPoint x="240" y="210" as="sourcePoint" />
            <mxPoint x="355" y="510" as="targetPoint" />
          </mxGeometry>
        </mxCell>
        <mxCell id="CeydBxBqV19K2FaGcwSM-6" value="" style="edgeStyle=entityRelationEdgeStyle;fontSize=12;html=1;endArrow=ERmandOne;rounded=0;entryX=1;entryY=0.5;entryDx=0;entryDy=0;exitX=0;exitY=0.75;exitDx=0;exitDy=0;" edge="1" parent="1" source="d7hhRoVu3XtH6k2qPUHQ-2" target="ij8cqxqRArz29GPGPIsn-2">
          <mxGeometry width="100" height="100" relative="1" as="geometry">
            <mxPoint x="610" y="650" as="sourcePoint" />
            <mxPoint x="710" y="550" as="targetPoint" />
          </mxGeometry>
        </mxCell>
        <mxCell id="CeydBxBqV19K2FaGcwSM-7" value="" style="edgeStyle=entityRelationEdgeStyle;fontSize=12;html=1;endArrow=ERmandOne;rounded=0;entryX=1;entryY=0.5;entryDx=0;entryDy=0;exitX=0;exitY=0;exitDx=0;exitDy=0;" edge="1" parent="1" source="d7hhRoVu3XtH6k2qPUHQ-2" target="ij8cqxqRArz29GPGPIsn-5">
          <mxGeometry width="100" height="100" relative="1" as="geometry">
            <mxPoint x="995" y="573" as="sourcePoint" />
            <mxPoint x="660" y="570" as="targetPoint" />
          </mxGeometry>
        </mxCell>
      </root>
    </mxGraphModel>
  </diagram>
</mxfile>
